<?xml version="1.0" standalone="no"?>
<!DOCTYPE svg PUBLIC "-//W3C//DTD SVG 20010904//EN"
 "http://www.w3.org/TR/2001/REC-SVG-20010904/DTD/svg10.dtd">
<svg version="1.0" xmlns="http://www.w3.org/2000/svg"
 width="900.000000pt" height="900.000000pt" viewBox="0 0 900.000000 900.000000"
 preserveAspectRatio="xMidYMid meet">
<rect width="100%" height="100%" fill="#ffffff" stroke="none"/>
<metadata>
Created by potrace 1.16, written by Peter Selinger 2001-2019
</metadata>
<g transform="translate(0.000000,900.000000) scale(0.100000,-0.100000)"
fill="#000000" stroke="none">
<path d="M4484 8976 c-118 -55 -181 -226 -140 -384 37 -147 143 -213 290 -182
121 25 196 141 196 306 0 138 -62 236 -169 268 -75 22 -117 20 -177 -8z m192
-97 c39 -36 54 -80 54 -161 0 -95 -14 -142 -54 -186 -30 -32 -40 -36 -93 -40
-55 -4 -62 -2 -95 26 -41 37 -58 86 -58 174 0 85 23 150 67 189 33 29 41 31
94 27 45 -3 65 -10 85 -29z"/>
<path d="M3990 8961 l-205 -26 2 -39 c2 -22 4 -41 6 -43 2 -1 41 2 86 9 49 7
85 8 90 2 4 -5 20 -108 35 -229 16 -121 30 -226 32 -232 4 -14 62 -17 80 -5 9
5 4 65 -17 222 -39 293 -43 266 39 274 109 11 112 13 112 57 0 47 20 46 -260
10z"/>
<path d="M4982 8863 c-6 -54 -23 -181 -36 -282 -14 -102 -22 -189 -20 -193 3
-4 25 -8 48 -8 l44 0 12 103 c6 56 13 108 15 115 5 13 53 16 71 4 6 -4 35 -59
64 -122 30 -63 58 -120 64 -126 14 -15 96 -27 96 -14 0 5 -27 66 -60 136 -33
69 -60 128 -60 130 0 1 18 13 40 25 47 26 64 50 80 107 21 79 -18 151 -101
186 -26 11 -196 36 -243 36 -1 0 -7 -44 -14 -97z m218 -23 c43 -22 55 -46 45
-89 -11 -49 -39 -66 -106 -64 -78 2 -82 6 -74 62 16 116 13 111 57 111 21 0
56 -9 78 -20z"/>
<path d="M3627 8910 c-20 -4 -39 -9 -41 -11 -4 -4 93 -551 99 -557 2 -2 22 -1
44 3 48 8 48 6 21 141 -10 54 -31 167 -45 249 -14 83 -29 157 -33 166 -5 11
-16 14 -45 9z"/>
<path d="M5505 8718 c-20 -84 -47 -203 -60 -264 -14 -61 -27 -118 -31 -127 -4
-12 4 -18 36 -27 23 -6 44 -9 47 -6 4 4 133 540 133 552 0 1 -12 5 -27 8 -16
4 -35 9 -45 12 -13 4 -22 -20 -53 -148z"/>
<path d="M3276 8839 c-84 -20 -146 -87 -146 -156 1 -40 34 -109 63 -128 14 -9
67 -27 118 -41 74 -19 100 -31 122 -54 45 -50 32 -89 -38 -115 -32 -13 -58
-16 -95 -11 l-50 7 0 -45 c0 -42 2 -44 33 -50 50 -9 137 11 181 42 83 58 104
125 64 202 -29 57 -71 85 -160 105 -116 26 -157 58 -144 111 9 33 55 54 119
54 l55 0 4 38 c3 21 0 40 -6 44 -14 10 -71 8 -120 -3z"/>
<path d="M5877 8756 c-121 -44 -202 -179 -202 -341 0 -70 4 -86 28 -127 40
-69 99 -100 196 -106 64 -4 84 -1 117 16 125 64 203 260 163 407 -16 56 -89
126 -158 148 -63 20 -93 21 -144 3z m148 -99 c55 -31 78 -77 71 -144 -14 -124
-84 -233 -159 -247 -52 -10 -111 9 -141 45 -64 75 -9 291 88 350 41 25 92 24
141 -4z"/>
<path d="M2795 8673 c-60 -13 -93 -30 -132 -66 -72 -67 -92 -180 -52 -299 27
-82 80 -159 132 -194 36 -25 51 -29 112 -29 59 0 79 5 124 30 137 75 165 228
76 406 -60 117 -158 175 -260 152z m108 -109 c59 -45 107 -154 107 -244 0 -48
-5 -64 -26 -90 -39 -46 -79 -63 -133 -57 -38 4 -52 12 -83 47 -52 58 -82 139
-83 222 0 57 3 70 25 93 52 57 139 69 193 29z"/>
<path d="M6640 8461 c0 -4 -56 -118 -125 -251 -69 -133 -124 -243 -123 -245
36 -24 78 -44 81 -38 17 28 257 497 257 502 0 8 -65 41 -80 41 -6 0 -10 -4
-10 -9z"/>
<path d="M2215 8407 c-57 -25 -162 -84 -169 -96 -4 -6 261 -481 277 -498 5 -5
77 37 77 45 0 6 -65 124 -87 158 -13 20 -11 23 24 44 50 30 111 88 129 122 32
62 6 158 -60 216 -32 28 -44 32 -89 31 -29 0 -74 -10 -102 -22z m137 -96 c60
-53 37 -125 -57 -175 -19 -11 -37 -17 -39 -15 -2 2 -24 39 -49 81 -42 72 -44
78 -28 92 21 19 87 44 118 45 13 1 37 -12 55 -28z"/>
<path d="M6866 8303 c-78 -122 -276 -435 -276 -438 0 -11 73 -46 79 -39 5 5
48 71 96 147 48 76 91 135 95 130 4 -4 15 -100 25 -213 18 -202 26 -250 44
-250 7 0 117 168 272 414 l43 69 -30 23 c-16 13 -33 24 -39 24 -5 0 -48 -61
-94 -136 -79 -126 -98 -151 -105 -143 -2 2 -13 100 -24 217 -12 117 -24 217
-27 222 -12 20 -35 9 -59 -27z"/>
<path d="M1750 8120 c-74 -55 -136 -103 -137 -107 -2 -7 294 -423 320 -450 10
-10 42 9 152 88 77 55 141 104 142 107 2 4 -8 20 -21 36 l-23 30 -34 -24 c-19
-13 -64 -45 -100 -72 -37 -26 -71 -48 -77 -48 -5 0 -21 16 -36 35 -14 19 -37
50 -51 69 l-26 34 76 53 c41 30 75 57 75 61 0 4 -10 19 -22 33 l-23 26 -73
-51 c-81 -58 -79 -58 -131 14 l-32 46 87 62 c48 35 96 70 107 79 l20 16 -22
32 c-12 17 -25 31 -29 30 -4 0 -68 -45 -142 -99z"/>
<path d="M7345 7956 c-55 -24 -95 -85 -95 -142 0 -13 16 -66 36 -116 38 -97
41 -146 10 -176 -39 -39 -128 3 -166 78 l-20 39 -35 -20 c-39 -24 -42 -34 -18
-69 76 -114 202 -162 284 -107 74 49 88 140 39 255 -49 115 -35 182 37 182 28
0 87 -51 103 -90 l12 -30 30 18 c17 9 33 23 35 30 8 18 -43 86 -85 116 -69 47
-114 56 -167 32z"/>
<path d="M1385 7821 c-22 -10 -74 -48 -115 -86 -41 -37 -77 -69 -79 -71 -6 -5
354 -427 371 -433 10 -3 68 47 68 60 0 4 -34 47 -76 95 l-76 87 23 18 c33 25
46 24 186 -17 l123 -36 41 33 c22 17 37 35 32 39 -4 4 -69 24 -144 45 l-136
37 4 67 c4 59 2 70 -23 108 -47 71 -119 91 -199 54z m119 -112 c14 -17 26 -39
26 -48 0 -24 -39 -80 -74 -105 l-28 -21 -54 60 c-30 33 -52 65 -51 70 2 6 23
25 46 43 57 43 100 43 135 1z"/>
<path d="M7712 7697 c-12 -13 -22 -28 -22 -33 0 -5 25 -34 55 -64 30 -30 55
-60 55 -66 0 -7 -79 -85 -175 -175 l-175 -163 34 -35 35 -34 177 168 178 169
62 -67 c34 -37 66 -67 71 -67 5 0 20 11 33 25 l23 24 -44 48 c-119 131 -273
293 -279 293 -4 0 -16 -10 -28 -23z"/>
<path d="M4090 7490 c-206 -3 -383 -9 -392 -13 -30 -15 -88 -94 -88 -120 0
-13 -9 -35 -19 -49 -11 -14 -27 -43 -36 -66 -9 -22 -22 -43 -30 -45 -7 -3 -15
-21 -19 -40 -3 -19 -15 -42 -26 -52 -11 -10 -20 -24 -20 -30 0 -7 -11 -28 -24
-48 -13 -19 -27 -45 -31 -57 -6 -20 -20 -43 -72 -126 -13 -19 -23 -41 -23 -48
0 -7 -13 -30 -30 -51 -16 -21 -30 -43 -30 -49 0 -7 -6 -21 -14 -32 -14 -18
-38 -19 -944 -24 -846 -5 -932 -6 -948 -22 -11 -9 -35 -20 -55 -26 -19 -5 -47
-21 -60 -34 -14 -14 -30 -27 -35 -29 -13 -5 -114 -128 -114 -139 0 -5 -10 -21
-23 -37 -21 -25 -25 -48 -41 -223 -30 -336 -36 -742 -32 -2195 3 -1253 5
-1414 19 -1446 9 -20 19 -60 23 -90 10 -79 43 -125 165 -227 74 -62 175 -114
244 -126 22 -4 50 -14 62 -21 18 -12 220 -15 1274 -16 688 -1 1267 -5 1286
-10 42 -9 89 -51 98 -88 3 -14 14 -37 23 -51 36 -54 82 -153 82 -175 0 -14 10
-48 21 -77 17 -43 22 -82 26 -205 4 -95 10 -156 17 -162 6 -5 70 -17 141 -26
163 -23 958 -34 1126 -16 209 23 261 30 275 42 12 9 14 76 14 374 0 325 2 364
17 376 13 12 156 14 821 16 709 2 810 4 839 18 18 9 56 19 83 22 35 4 63 15
87 34 20 16 39 29 43 29 5 0 44 35 89 77 80 78 80 78 91 147 6 38 15 76 20 85
30 57 33 180 37 1761 2 877 0 1706 -5 1843 -8 231 -10 249 -30 277 -12 16 -22
34 -22 39 0 14 -93 125 -155 187 -29 28 -74 63 -101 79 -48 28 -53 29 -240 34
l-192 6 -36 39 c-20 22 -36 49 -36 60 0 12 -11 39 -25 61 -13 22 -25 47 -25
56 0 9 -11 37 -24 62 -14 25 -28 62 -31 81 -4 19 -16 42 -26 52 -10 9 -19 28
-19 41 0 13 -13 49 -30 80 -16 31 -30 66 -30 78 0 12 -8 30 -19 39 -10 9 -21
33 -24 52 -3 19 -17 48 -31 65 -14 17 -26 34 -26 38 0 4 -17 15 -37 24 -34 15
-151 17 -1208 19 -643 2 -1339 1 -1545 -2z m2694 -186 c9 -8 16 -21 16 -28 0
-7 9 -24 19 -38 11 -13 22 -41 26 -61 4 -20 15 -47 25 -60 10 -12 23 -41 29
-63 6 -22 17 -48 25 -59 9 -11 16 -27 16 -36 0 -8 11 -38 25 -65 14 -27 30
-67 36 -89 6 -22 17 -47 24 -55 7 -8 17 -28 20 -45 9 -37 75 -178 87 -186 5
-3 98 -8 207 -12 168 -4 204 -8 241 -25 25 -11 59 -25 76 -30 41 -13 143 -108
151 -141 3 -14 17 -46 30 -70 l23 -44 0 -1859 0 -1859 -32 -77 c-32 -74 -110
-172 -138 -172 -6 0 -25 -10 -41 -22 l-31 -23 -834 -3 -834 -3 -11 25 c-9 20
-8 35 5 73 25 70 35 114 36 148 0 17 9 48 21 70 12 21 25 67 30 102 5 35 17
79 27 96 15 29 17 75 17 532 l0 500 -27 40 c-32 47 -91 110 -124 132 -18 11
-56 14 -173 14 l-151 0 -41 44 c-31 33 -61 52 -121 75 -89 33 -150 38 -205 15
-52 -22 -89 -11 -117 33 -32 50 -57 69 -133 103 -52 23 -79 29 -135 29 -38 0
-79 -5 -90 -11 -46 -25 -49 -9 -51 367 -3 333 -4 352 -25 406 -12 32 -22 63
-22 70 0 12 -46 64 -97 110 -22 20 -143 48 -207 48 -109 0 -208 -49 -264 -130
-48 -69 -52 -141 -52 -878 0 -397 -4 -660 -10 -671 -5 -10 -14 -49 -20 -87 -6
-38 -17 -79 -25 -91 -8 -11 -20 -43 -26 -70 -7 -26 -20 -64 -29 -83 -10 -19
-21 -51 -25 -70 -4 -19 -15 -51 -25 -70 -10 -19 -21 -54 -25 -77 -3 -23 -15
-53 -26 -67 -13 -16 -23 -53 -29 -108 -6 -46 -13 -89 -15 -97 -8 -20 25 -184
40 -201 7 -8 22 -35 34 -60 11 -25 25 -52 30 -60 5 -8 17 -31 27 -50 9 -19 26
-52 37 -74 41 -77 154 -71 -1279 -71 l-1279 0 -48 30 c-77 48 -112 85 -151
160 l-36 70 -1 1875 c0 1031 3 1889 7 1905 13 56 66 135 119 180 28 25 58 45
65 45 7 0 36 11 64 24 l51 24 1730 3 c952 2 1737 5 1745 7 17 3 70 91 70 114
0 7 11 33 24 58 13 25 27 59 30 77 4 17 13 37 21 43 8 6 17 26 20 43 6 29 24
73 76 182 10 22 26 60 34 85 9 24 22 51 29 60 7 8 17 33 20 54 5 23 19 51 36
68 l28 28 721 0 c641 0 721 -2 735 -16z m-1690 -7 c17 -13 17 -15 -3 -52 -12
-22 -21 -45 -21 -52 0 -7 -11 -34 -24 -60 -13 -27 -37 -77 -52 -113 -15 -36
-37 -87 -50 -115 -12 -27 -25 -61 -29 -75 -4 -14 -13 -32 -19 -40 -7 -8 -20
-36 -30 -61 -12 -33 -25 -50 -44 -58 -18 -8 -105 -10 -262 -9 l-235 3 -3 33
c-2 20 3 41 11 50 8 10 18 28 22 42 4 14 15 41 25 60 10 19 34 71 55 115 20
44 41 87 46 95 5 8 14 26 20 40 15 34 69 152 78 170 18 35 52 40 277 40 166 0
225 -3 238 -13z m-749 -39 c-4 -18 -15 -40 -25 -48 -10 -8 -22 -32 -25 -53 -4
-21 -15 -42 -26 -48 -11 -6 -21 -26 -25 -50 -4 -22 -14 -45 -24 -52 -9 -7 -20
-30 -24 -51 -4 -22 -16 -51 -26 -63 -10 -13 -21 -37 -25 -52 -3 -16 -17 -38
-29 -50 -13 -13 -22 -30 -20 -39 11 -45 0 -47 -290 -50 -197 -3 -280 0 -296 8
-16 9 -19 15 -11 23 6 6 11 18 11 27 0 8 10 31 23 50 13 19 29 51 37 70 7 19
22 44 32 56 10 11 18 26 18 34 0 8 8 23 18 34 10 12 25 37 32 56 8 19 20 41
27 48 7 7 17 30 23 51 6 22 17 42 25 45 8 3 15 15 15 26 0 12 5 30 10 41 10
18 24 19 296 19 l286 0 -7 -32z m119 -2264 c19 -16 38 -36 43 -44 4 -8 9 -260
9 -560 1 -300 2 -553 3 -562 4 -57 118 -82 160 -36 24 25 27 35 36 110 5 49
11 62 41 88 30 25 43 30 89 30 74 0 101 -15 135 -75 27 -47 30 -61 30 -141 1
-99 12 -162 32 -176 15 -11 98 -2 112 12 5 5 12 43 15 84 6 66 10 79 37 105
34 34 85 46 148 37 35 -6 50 -15 77 -49 l34 -42 6 -137 c3 -90 10 -142 18
-152 9 -11 30 -16 67 -16 60 0 67 7 79 80 11 65 50 158 77 180 67 54 143 19
177 -83 20 -57 21 -84 21 -386 0 -240 -4 -350 -15 -416 -8 -49 -15 -106 -15
-125 0 -19 -9 -53 -21 -75 -12 -21 -25 -68 -30 -104 -5 -36 -18 -86 -28 -111
-10 -25 -21 -76 -25 -114 -4 -38 -14 -85 -22 -105 -22 -50 -37 -364 -30 -611
5 -146 3 -199 -6 -208 -18 -18 -1231 -17 -1246 1 -5 6 -12 73 -14 147 -2 104
-7 141 -20 160 -9 14 -19 41 -23 60 -7 36 -54 135 -106 225 -16 28 -38 68 -49
90 -12 22 -45 85 -75 140 -31 55 -64 119 -75 141 -11 23 -26 47 -34 53 -8 7
-17 24 -21 39 -4 15 -11 33 -17 40 -6 7 -26 43 -44 79 -27 53 -34 79 -34 124
0 32 4 61 10 64 9 5 29 67 45 139 6 28 6 28 61 21 66 -8 109 0 121 23 4 9 10
463 13 1009 l5 992 30 32 c64 67 154 77 219 23z"/>
<path d="M4185 5747 c-90 -30 -131 -51 -200 -101 -59 -44 -152 -145 -176 -191
-11 -22 -27 -51 -34 -65 -17 -33 -44 -115 -55 -165 -22 -100 -2 -366 31 -401
10 -11 19 -34 19 -52 0 -21 6 -35 20 -42 11 -6 23 -23 26 -38 4 -15 18 -37 31
-49 12 -12 23 -29 23 -37 0 -8 9 -17 19 -21 11 -3 23 -15 26 -26 13 -39 23
-17 30 61 7 76 6 81 -19 111 -14 17 -26 34 -26 38 0 5 -10 21 -22 37 -92 116
-109 357 -37 509 42 89 69 127 138 192 37 35 65 53 82 53 18 0 29 8 38 26 9
21 17 25 44 23 56 -4 67 0 77 26 l10 26 137 -3 c125 -3 138 -5 138 -21 0 -26
23 -37 78 -37 41 0 49 -3 57 -25 6 -16 17 -25 30 -25 12 0 31 -11 43 -23 12
-13 32 -29 45 -36 12 -6 22 -18 22 -25 0 -7 11 -18 25 -24 13 -6 33 -28 45
-49 11 -21 24 -45 29 -53 30 -49 54 -134 59 -204 6 -97 -14 -238 -38 -268 -9
-13 -21 -34 -25 -48 -4 -14 -15 -34 -25 -45 -9 -11 -24 -33 -32 -50 -8 -16
-20 -40 -28 -51 -16 -27 -7 -54 19 -54 27 0 116 115 139 181 56 159 62 191 62
314 -1 83 -6 132 -16 160 -9 22 -22 62 -31 89 -8 27 -28 67 -44 90 -17 22 -40
57 -53 76 -29 43 -66 77 -131 120 -27 18 -62 42 -77 52 -15 10 -51 23 -80 29
-29 6 -65 18 -80 25 -43 22 -238 17 -313 -9z"/>
<path d="M1988 5270 c-17 -10 -18 -52 -18 -646 l0 -634 26 -10 c28 -11 136
-13 172 -4 l22 6 0 258 c0 227 2 259 17 271 12 11 72 15 263 17 l247 3 37 -52
c21 -28 40 -58 43 -67 4 -10 16 -29 27 -43 12 -15 30 -42 41 -60 11 -18 30
-49 42 -69 12 -19 31 -51 42 -71 11 -19 27 -41 35 -48 9 -8 16 -18 16 -22 0
-25 74 -114 98 -120 50 -12 168 -9 185 4 17 11 16 16 -13 60 -16 26 -43 68
-60 94 -16 25 -30 52 -30 60 0 7 -5 13 -10 13 -6 0 -19 17 -28 38 -9 20 -25
48 -35 62 -37 52 -65 99 -71 118 -4 10 -15 27 -26 37 -41 37 -15 79 68 110 54
21 76 38 126 100 13 17 36 62 52 100 75 182 3 371 -178 466 l-63 34 -505 2
c-340 2 -511 0 -522 -7z m909 -216 c65 -14 83 -22 109 -50 34 -38 50 -98 35
-136 -18 -45 -65 -89 -106 -98 -31 -7 -423 -13 -677 -10 -16 0 -37 9 -48 20
-17 17 -20 33 -20 126 0 103 1 106 29 135 l29 29 286 0 c224 0 302 -3 363 -16z"/>
<path d="M5722 5270 l-22 -9 3 -493 c3 -539 6 -569 65 -648 30 -42 83 -89 98
-90 6 0 28 -11 48 -25 25 -17 62 -29 112 -36 41 -5 90 -17 110 -25 46 -19 335
-18 404 2 25 7 75 17 112 23 37 7 89 23 115 37 60 31 159 127 168 162 3 14 15
45 26 69 18 40 19 66 17 540 l-3 498 -110 0 -110 0 -5 -470 -5 -470 -26 -50
c-34 -63 -97 -103 -188 -117 -36 -6 -144 -8 -240 -6 l-176 4 -64 34 c-61 33
-66 39 -92 100 l-28 65 -1 438 c0 282 -4 445 -10 458 -9 16 -21 19 -93 18 -45
0 -92 -4 -105 -9z"/>
<path d="M813 7258 c-32 -40 -82 -103 -111 -139 l-52 -66 221 -174 c121 -96
224 -174 229 -174 9 0 220 263 220 275 0 3 -13 16 -30 28 l-30 22 -77 -99
c-43 -55 -82 -100 -88 -100 -13 0 -135 97 -135 108 0 5 24 40 54 79 l55 69
-31 23 c-16 12 -34 18 -38 14 -4 -5 -31 -37 -59 -72 l-52 -63 -27 20 c-15 11
-40 31 -57 44 l-29 24 82 104 81 104 -27 22 c-15 12 -30 22 -34 23 -4 0 -33
-33 -65 -72z"/>
<path d="M7918 7114 l-217 -187 21 -29 c11 -16 26 -32 34 -35 12 -4 434 352
434 366 0 3 -13 21 -28 39 l-27 33 -217 -187z"/>
<path d="M8243 7106 l-32 -22 49 -69 c28 -38 50 -74 50 -80 0 -5 -87 -73 -194
-150 -207 -148 -200 -140 -158 -194 l19 -23 194 141 c107 77 197 141 201 141
4 0 31 -34 60 -75 29 -41 55 -75 58 -75 3 0 18 11 35 24 22 18 27 27 19 37 -6
8 -68 94 -139 192 -70 97 -128 177 -129 177 0 -1 -15 -11 -33 -24z"/>
<path d="M525 6797 c-28 -13 -63 -39 -78 -56 -42 -50 -110 -169 -104 -183 6
-15 448 -298 465 -298 6 0 28 26 49 58 111 172 110 288 -5 400 -100 97 -225
127 -327 79z m173 -91 c99 -52 152 -120 152 -197 0 -41 -32 -114 -54 -122 -8
-3 -323 187 -345 209 -9 8 68 99 99 116 39 21 100 19 148 -6z"/>
<path d="M8433 6505 c-193 -101 -237 -137 -249 -200 -8 -47 1 -89 34 -154 39
-78 88 -114 160 -119 52 -3 66 1 160 47 57 28 146 74 198 102 l94 51 -20 39
c-11 21 -23 39 -26 39 -3 0 -90 -43 -193 -95 -103 -52 -193 -95 -200 -95 -33
0 -83 35 -101 71 -26 50 -25 90 3 120 12 13 104 67 204 118 l182 94 -20 39
c-11 21 -25 38 -32 38 -6 0 -94 -43 -194 -95z"/>
<path d="M152 6055 c-29 -15 -64 -41 -77 -59 -42 -56 -75 -142 -75 -199 l0
-52 251 -97 251 -96 18 44 c41 95 53 142 54 209 0 60 -4 78 -27 117 -50 85
-161 149 -272 155 -61 4 -77 1 -123 -22z m203 -99 c72 -33 111 -70 131 -122
17 -44 17 -48 -1 -100 -20 -59 -31 -64 -87 -39 -18 8 -94 37 -168 66 -74 28
-139 55 -143 59 -9 8 22 83 45 110 47 56 136 67 223 26z"/>
<path d="M8655 5997 c-96 -32 -165 -82 -203 -146 -54 -92 -26 -239 59 -316 22
-19 43 -35 47 -35 5 0 18 13 30 30 l22 30 -44 42 c-101 98 -60 231 88 287 116
43 219 16 263 -70 15 -28 22 -57 20 -81 -2 -30 1 -38 18 -42 43 -12 45 -9 45
69 0 107 -37 172 -125 217 -50 26 -163 33 -220 15z"/>
<path d="M8768 5446 c-119 -34 -220 -65 -223 -68 -8 -8 14 -88 24 -88 4 0 21
4 37 9 16 5 81 24 144 41 63 17 145 40 183 51 l67 21 0 49 c0 27 -3 49 -7 48
-5 0 -106 -29 -225 -63z"/>
<path d="M410 5480 c-58 -11 -389 -60 -401 -60 -6 0 -9 -37 -7 -87 l3 -87 65
-46 c192 -136 281 -193 290 -184 5 5 12 27 15 49 7 41 6 41 -45 73 -44 27 -51
36 -46 55 3 12 13 57 22 99 l17 77 63 6 62 7 11 43 c13 52 14 65 4 64 -5 -1
-28 -5 -53 -9z m-166 -128 c3 -5 1 -24 -3 -43 -5 -19 -12 -46 -15 -61 -4 -16
-11 -28 -16 -28 -15 0 -192 111 -187 117 3 2 42 8 88 12 120 12 127 12 133 3z"/>
<path d="M8817 5234 c-138 -44 -209 -138 -192 -253 9 -64 51 -147 89 -176 63
-48 163 -67 255 -49 30 6 31 8 31 59 l0 53 -37 -9 c-88 -20 -183 0 -225 47
-23 26 -36 92 -26 131 16 60 107 109 226 120 l62 6 0 48 0 49 -52 0 c-29 -1
-88 -12 -131 -26z"/>
<path d="M0 4952 l0 -48 58 -12 c123 -25 192 -102 177 -199 -3 -23 -10 -45
-15 -48 -7 -4 -114 6 -192 20 -27 4 -28 3 -28 -44 l0 -48 138 -19 c75 -10 142
-19 147 -19 15 0 37 162 30 219 -12 98 -53 159 -135 201 -38 19 -137 45 -172
45 -4 0 -8 -22 -8 -48z"/>
<path d="M8788 4603 l-88 -4 0 -44 0 -45 73 0 c41 0 108 3 150 6 l77 7 0 43 0
44 -62 -2 c-35 -1 -102 -4 -150 -5z"/>
<path d="M8849 4342 c-100 -82 -145 -125 -147 -141 -4 -22 -1 -24 35 -18 21 4
89 7 151 7 l112 0 0 51 0 52 -30 -6 c-42 -9 -43 4 -4 33 31 23 33 29 34 83 0
31 -1 57 -3 57 -2 0 -68 -53 -148 -118z"/>
<path d="M0 4376 l0 -43 46 -7 c26 -3 91 -6 145 -6 l99 0 0 44 c0 42 -1 44
-37 50 -21 3 -86 6 -145 6 l-108 0 0 -44z"/>
<path d="M0 4130 c0 -50 0 -50 32 -50 l32 0 -33 -27 c-30 -26 -32 -31 -29 -84
l3 -56 140 115 c77 63 141 123 143 133 3 18 -6 19 -142 19 l-146 0 0 -50z"/>
<path d="M8710 4080 c0 -21 -2 -44 -5 -52 -3 -8 17 -23 56 -40 l60 -27 -5 -43
c-3 -24 -8 -69 -11 -100 -5 -41 -11 -58 -23 -62 -9 -3 -36 -10 -59 -16 -30 -7
-43 -16 -43 -28 0 -9 -3 -34 -6 -54 -6 -37 -6 -37 22 -29 16 5 91 28 167 52
l137 42 0 45 c0 41 -2 44 -22 38 -13 -3 -42 -9 -66 -13 l-43 -6 7 59 c9 88 7
86 59 64 26 -11 51 -20 56 -20 5 0 9 20 9 45 l0 45 -90 45 c-50 25 -115 56
-145 70 l-55 24 0 -39z"/>
<path d="M63 3853 l-63 -4 0 -44 0 -45 43 0 c24 0 91 3 148 6 l104 7 -4 43 -3
44 -82 -2 c-44 -1 -109 -3 -143 -5z"/>
<path d="M60 3606 l-55 -11 -3 -49 -3 -49 38 7 c21 4 70 9 110 13 70 6 73 5
101 -24 38 -37 50 -99 28 -142 -21 -39 -40 -49 -134 -66 -155 -28 -142 -21
-142 -76 0 -46 2 -49 23 -45 12 3 72 15 132 26 127 25 166 46 196 108 43 88 6
235 -74 293 -34 25 -49 29 -101 28 -34 -1 -86 -6 -116 -13z"/>
<path d="M8655 3517 c-4 -13 -19 -91 -34 -173 -29 -159 -29 -159 23 -166 l30
-3 22 124 c13 68 25 126 29 129 3 3 58 -4 123 -16 159 -30 152 -31 152 22 l0
44 -47 11 c-50 11 -271 51 -285 51 -4 0 -10 -11 -13 -23z"/>
<path d="M4292 936 c-5 -6 -35 -76 -65 -156 -49 -128 -107 -276 -176 -448
l-21 -53 61 3 62 3 21 65 22 65 109 3 c65 2 112 -1 119 -8 5 -5 20 -36 32 -68
l21 -57 58 -3 c52 -3 57 -1 51 15 -3 10 -61 158 -128 330 -121 309 -139 343
-166 309z m63 -306 c19 -57 35 -110 35 -117 0 -10 -21 -13 -80 -13 -44 0 -80
2 -80 5 0 10 63 201 72 218 5 10 12 17 14 14 2 -2 20 -51 39 -107z"/>
<path d="M6103 942 c-7 -4 -27 -48 -46 -97 -35 -90 -62 -160 -163 -418 -30
-76 -54 -140 -54 -143 0 -3 26 -4 58 -2 l57 3 20 55 c11 30 24 61 28 68 9 13
204 18 222 4 6 -4 22 -35 35 -69 l25 -63 57 0 c56 0 57 1 49 23 -5 12 -44 110
-86 217 -42 107 -95 242 -117 300 -51 130 -57 140 -85 122z m57 -309 c18 -60
35 -114 38 -120 3 -10 -16 -13 -77 -13 -61 0 -81 3 -81 13 0 11 12 50 65 215
10 29 24 5 55 -95z"/>
<path d="M5360 610 l0 -330 113 0 c141 0 207 17 258 69 84 83 71 225 -26 282
l-35 21 34 32 c44 41 55 91 31 151 -30 81 -90 105 -262 105 l-113 0 0 -330z
m259 216 c30 -28 28 -86 -4 -116 -20 -19 -36 -23 -87 -24 l-63 -1 -3 69 c-2
38 0 76 3 84 8 22 127 12 154 -12z m18 -252 c37 -28 49 -73 34 -123 -16 -56
-51 -75 -136 -75 l-70 -1 -3 99 c-1 55 0 106 3 114 9 23 137 12 172 -14z"/>
<path d="M2870 668 c4 -219 8 -268 21 -293 38 -68 98 -98 199 -99 127 -2 214
49 239 141 6 22 11 141 11 276 l0 237 -52 0 -53 0 3 -218 c3 -249 -3 -283 -57
-319 -40 -27 -107 -31 -152 -7 -53 27 -59 58 -59 314 l0 230 -52 0 -53 0 5
-262z"/>
<path d="M3482 605 l1 -325 53 0 52 0 2 197 c0 108 3 199 6 202 3 4 12 -3 20
-14 53 -74 290 -381 299 -387 34 -24 35 -13 35 322 l0 330 -50 0 -50 0 0 -190
c0 -113 -4 -190 -9 -190 -6 0 -76 86 -157 190 -129 168 -150 190 -175 190
l-29 0 2 -325z"/>
<path d="M4746 918 c-5 -16 -126 -622 -126 -632 0 -3 23 -6 50 -6 28 0 50 1
50 3 0 9 61 314 66 330 3 9 9 15 13 13 4 -3 34 -78 66 -168 58 -164 77 -200
94 -183 5 6 35 82 66 170 32 88 63 166 70 173 9 10 19 -25 45 -163 l34 -175
48 0 c33 0 48 4 48 13 0 13 -10 62 -88 447 l-37 185 -30 0 c-32 0 -28 10 -116
-288 -26 -88 -49 -141 -56 -133 -4 3 -36 99 -73 214 -63 199 -67 207 -93 210
-16 2 -29 -2 -31 -10z"/>
</g>
</svg>
